<?xml version="1.0" encoding="iso-8859-1"?>
<!-- Generator: Adobe Illustrator 19.0.0, SVG Export Plug-In . SVG Version: 6.00 Build 0)  -->
<svg version="1.1" id="Layer_1" xmlns="http://www.w3.org/2000/svg" xmlns:xlink="http://www.w3.org/1999/xlink" x="0px" y="0px"
	 viewBox="0 0 512 512" style="enable-background:new 0 0 512 512;" xml:space="preserve">
<g>
	<path style="fill:#A72328;" d="M118.481,252.051c-1.453,0-2.929-0.25-4.374-0.774c-6.643-2.417-10.07-9.76-7.653-16.403
		l42.3-116.317c7.159-19.684,26.042-32.909,46.986-32.909h138.033c20.943,0,39.826,13.225,46.985,32.908l20.744,57.041
		c2.417,6.643-1.01,13.988-7.653,16.405c-6.643,2.415-13.989-1.011-16.403-7.654l-20.744-57.041
		c-3.493-9.604-12.708-16.058-22.927-16.058H195.74c-10.221,0-19.436,6.454-22.929,16.058l-42.3,116.315
		C128.62,248.82,123.71,252.051,118.481,252.051z"/>
	<path style="fill:#A72328;" d="M437.761,250.766c-7.068,0-12.8-5.731-12.8-12.8v-75.517c0-7.069,5.732-12.8,12.8-12.8
		c7.068,0,12.8,5.731,12.8,12.8v75.517C450.561,245.035,444.829,250.766,437.761,250.766z"/>
	<path style="fill:#A72328;" d="M437.761,125.325c-7.068,0-12.8-5.731-12.8-12.8v-7.677c0-7.069,5.732-12.8,12.8-12.8
		c7.068,0,12.8,5.731,12.8,12.8v7.677C450.561,119.595,444.829,125.325,437.761,125.325z"/>
	<path style="fill:#A72328;" d="M71.679,379.096H12.8c-7.068,0-12.8-5.731-12.8-12.8s5.732-12.8,12.8-12.8h58.879
		c7.068,0,12.8,5.731,12.8,12.8S78.747,379.096,71.679,379.096z"/>
	<path style="fill:#A72328;" d="M499.2,379.096h-60.855c-7.068,0-12.8-5.731-12.8-12.8s5.732-12.8,12.8-12.8H499.2
		c7.068,0,12.8,5.731,12.8,12.8S506.269,379.096,499.2,379.096z"/>
	<path style="fill:#A72328;" d="M119.888,426.352c-32.592,0-59.107-26.514-59.107-59.106s26.515-59.106,59.107-59.106
		c32.59,0,59.106,26.515,59.106,59.106S152.478,426.352,119.888,426.352z M119.888,333.741c-18.476,0-33.507,15.031-33.507,33.505
		c0,18.474,15.031,33.505,33.507,33.505s33.505-15.03,33.505-33.505C153.393,348.771,138.364,333.741,119.888,333.741z"/>
</g>
<path style="fill:#F4DABB;" d="M63.259,239.246h372.493c26.912,0,48.729,21.816,48.729,48.729v76.71h-46.138
	c-1.331-24.382-21.518-43.743-46.231-43.743s-44.901,19.361-46.231,43.743H166.119c-1.331-24.382-21.518-43.743-46.231-43.743
	s-44.901,19.361-46.231,43.743H27.519v-89.696C27.519,255.249,43.52,239.246,63.259,239.246z"/>
<g>
	<path style="fill:#A72328;" d="M484.482,377.484h-46.138c-6.798,0-12.41-5.315-12.781-12.102
		c-0.969-17.742-15.662-31.64-33.452-31.64c-17.79,0-32.481,13.898-33.45,31.64c-0.371,6.788-5.983,12.102-12.781,12.102H166.119
		c-6.799,0-12.411-5.315-12.781-12.104c-0.968-17.742-15.661-31.639-33.45-31.639s-32.483,13.897-33.45,31.64
		c-0.37,6.788-5.983,12.102-12.781,12.102H27.519c-7.068,0-12.8-5.731-12.8-12.8v-89.696c0-26.765,21.775-48.54,48.54-48.54h372.495
		c33.928,0,61.529,27.601,61.529,61.529v76.71C497.283,371.754,491.551,377.484,484.482,377.484z M449.2,351.884h22.482v-63.909
		c0-19.811-16.118-35.929-35.928-35.929H63.259c-12.649,0-22.94,10.291-22.94,22.94v76.896H62.8
		c6.781-25.308,29.883-43.743,57.088-43.743s50.307,18.435,57.088,43.743h158.05c6.781-25.307,29.883-43.743,57.087-43.743
		C419.317,308.14,442.419,326.577,449.2,351.884z"/>
	<path style="fill:#A72328;" d="M248.314,252.047c-7.068,0-12.8-5.731-12.8-12.8v-76.8c0-7.069,5.732-12.8,12.8-12.8
		c7.068,0,12.8,5.731,12.8,12.8v76.8C261.114,246.317,255.383,252.047,248.314,252.047z"/>
	<path style="fill:#A72328;" d="M392.368,426.336c-32.59,0-59.106-26.515-59.106-59.106s26.515-59.106,59.106-59.106
		c7.068,0,12.8,5.731,12.8,12.8s-5.732,12.8-12.8,12.8c-18.476,0-33.505,15.031-33.505,33.505c0,18.474,15.03,33.505,33.505,33.505
		c7.068,0,12.8,5.731,12.8,12.8S399.438,426.336,392.368,426.336z"/>
</g>
<g>
</g>
<g>
</g>
<g>
</g>
<g>
</g>
<g>
</g>
<g>
</g>
<g>
</g>
<g>
</g>
<g>
</g>
<g>
</g>
<g>
</g>
<g>
</g>
<g>
</g>
<g>
</g>
<g>
</g>
</svg>
