<?xml version="1.0" encoding="UTF-8"?>
<!DOCTYPE svg PUBLIC "-//W3C//DTD SVG 1.1//EN" "http://www.w3.org/Graphics/SVG/1.1/DTD/svg11.dtd">
<svg xmlns="http://www.w3.org/2000/svg" version="1.1" width="240px" height="240px" style="shape-rendering:geometricPrecision; text-rendering:geometricPrecision; image-rendering:optimizeQuality; fill-rule:evenodd; clip-rule:evenodd" xmlns:xlink="http://www.w3.org/1999/xlink">
<g><path style="opacity:1" fill="#fefefe" d="M -0.5,-0.5 C 79.5,-0.5 159.5,-0.5 239.5,-0.5C 239.5,79.5 239.5,159.5 239.5,239.5C 159.5,239.5 79.5,239.5 -0.5,239.5C -0.5,159.5 -0.5,79.5 -0.5,-0.5 Z"/></g>
<g><path style="opacity:1" fill="#fefcfb" d="M 135.5,66.5 C 145.986,79.3368 146.153,92.3368 136,105.5C 123.687,115.719 111.187,116.052 98.5,106.5C 85.6511,91.4343 86.6511,77.2676 101.5,64C 113.392,57.5999 124.725,58.4333 135.5,66.5 Z"/></g>
<g><path style="opacity:1" fill="#e21917" d="M 160.5,57.5 C 157.445,55.195 154.612,52.5283 152,49.5C 151.508,50.549 151.674,51.549 152.5,52.5C 151.131,54.8475 148.797,57.6808 145.5,61C 144.551,61.6172 143.718,61.4506 143,60.5C 141.333,62.5 139.667,64.5 138,66.5C 137.23,65.4019 136.397,65.4019 135.5,66.5C 124.725,58.4333 113.392,57.5999 101.5,64C 86.6511,77.2676 85.6511,91.4343 98.5,106.5C 97.1492,109.039 95.9825,111.706 95,114.5C 92.8333,115.333 91.3333,116.833 90.5,119C 89.552,119.483 88.552,119.649 87.5,119.5C 87.6495,120.552 87.4828,121.552 87,122.5C 84.8333,123.333 83.3333,124.833 82.5,127C 81.2161,127.684 80.0495,127.517 79,126.5C 78.6667,127.5 78.3333,128.5 78,129.5C 77.6608,127.166 77.8275,124.832 78.5,122.5C 78.0302,118.741 77.0302,118.574 75.5,122C 75.9444,123.762 76.4444,123.595 77,121.5C 77.1699,123.845 76.8365,126.179 76,128.5C 74.9887,127.663 73.8221,127.33 72.5,127.5C 63.8182,109.607 61.3182,90.9408 65,71.5C 80.5648,37.1944 106.065,26.6944 141.5,40C 149.283,44.2836 155.616,50.1169 160.5,57.5 Z"/></g>
<g><path style="opacity:1" fill="#df1312" d="M 164.5,71.5 C 165.586,71.62 166.253,72.2867 166.5,73.5C 168.817,83.4335 168.984,93.4335 167,103.5C 163.793,115.016 160.293,126.349 156.5,137.5C 146.1,157.617 132.766,175.617 116.5,191.5C 112.548,188.258 109.048,184.592 106,180.5C 100.281,172.955 94.7812,165.288 89.5,157.5C 89.33,156.178 89.6634,155.011 90.5,154C 87.9606,151.958 85.9606,149.458 84.5,146.5C 84.7093,145.914 85.0426,145.414 85.5,145C 83.1408,142.574 81.9742,139.741 82,136.5C 116.5,135.732 142.167,120.065 159,89.5C 160.733,83.4677 162.566,77.4677 164.5,71.5 Z"/></g>
<g><path style="opacity:1" fill="#c71b14" d="M 165.5,65.5 C 170.056,74.9899 171.556,84.9899 170,95.5C 167.978,110.395 163.478,124.395 156.5,137.5C 160.293,126.349 163.793,115.016 167,103.5C 168.984,93.4335 168.817,83.4335 166.5,73.5C 166.253,72.2867 165.586,71.62 164.5,71.5C 164.205,69.2646 164.539,67.2646 165.5,65.5 Z"/></g>
<g><path style="opacity:1" fill="#eb2925" d="M 160.5,57.5 C 162.653,59.7937 164.32,62.4604 165.5,65.5C 164.539,67.2646 164.205,69.2646 164.5,71.5C 162.566,77.4677 160.733,83.4677 159,89.5C 142.167,120.065 116.5,135.732 82,136.5C 81.9742,139.741 83.1408,142.574 85.5,145C 85.0426,145.414 84.7093,145.914 84.5,146.5C 85.9606,149.458 87.9606,151.958 90.5,154C 89.6634,155.011 89.33,156.178 89.5,157.5C 82.8223,148.153 77.1556,138.153 72.5,127.5C 73.8221,127.33 74.9887,127.663 76,128.5C 76.8365,126.179 77.1699,123.845 77,121.5C 76.4444,123.595 75.9444,123.762 75.5,122C 77.0302,118.574 78.0302,118.741 78.5,122.5C 77.8275,124.832 77.6608,127.166 78,129.5C 78.3333,128.5 78.6667,127.5 79,126.5C 80.0495,127.517 81.2161,127.684 82.5,127C 83.3333,124.833 84.8333,123.333 87,122.5C 87.4828,121.552 87.6495,120.552 87.5,119.5C 88.552,119.649 89.552,119.483 90.5,119C 91.3333,116.833 92.8333,115.333 95,114.5C 95.9825,111.706 97.1492,109.039 98.5,106.5C 111.187,116.052 123.687,115.719 136,105.5C 146.153,92.3368 145.986,79.3368 135.5,66.5C 136.397,65.4019 137.23,65.4019 138,66.5C 139.667,64.5 141.333,62.5 143,60.5C 143.718,61.4506 144.551,61.6172 145.5,61C 148.797,57.6808 151.131,54.8475 152.5,52.5C 151.674,51.549 151.508,50.549 152,49.5C 154.612,52.5283 157.445,55.195 160.5,57.5 Z"/></g>
<g><path style="opacity:1" fill="#d4d4d4" d="M 82.5,196.5 C 103.503,196.333 124.503,196.5 145.5,197C 155.619,197.312 165.619,198.478 175.5,200.5C 167.581,201.995 159.581,202.829 151.5,203C 126.167,203.667 100.833,203.667 75.5,203C 69.3933,202.825 63.3933,201.992 57.5,200.5C 57.8333,200.167 58.1667,199.833 58.5,199.5C 66.589,198.169 74.589,197.169 82.5,196.5 Z"/></g>
</svg>
